<svg width="156" height="137" viewBox="0 0 156 137" fill="none" xmlns="http://www.w3.org/2000/svg">
<path d="M81.252 90V84.4H82.292V89.12H85.22V90H81.252ZM86.0411 90V84.4H90.1291V85.272H87.0811V89.128H90.2411V90H86.0411ZM87.0011 87.584V86.728H89.7851V87.584H87.0011ZM92.5364 90V85.28H90.6804V84.4H95.4324V85.28H93.5764V90H92.5364ZM96.0561 86.488L96.5201 84.712L96.6561 85.312C96.4694 85.312 96.3121 85.2533 96.1841 85.136C96.0614 85.0187 96.0001 84.8613 96.0001 84.664C96.0001 84.4667 96.0614 84.3093 96.1841 84.192C96.3121 84.0693 96.4667 84.008 96.6481 84.008C96.8347 84.008 96.9894 84.0693 97.1121 84.192C97.2347 84.3147 97.2961 84.472 97.2961 84.664C97.2961 84.7227 97.2907 84.784 97.2801 84.848C97.2747 84.9067 97.2587 84.976 97.2321 85.056C97.2107 85.1307 97.1734 85.2293 97.1201 85.352L96.7041 86.488H96.0561ZM100.183 90.08C99.746 90.08 99.3273 90.0187 98.9273 89.896C98.5273 89.768 98.21 89.6053 97.9753 89.408L98.3353 88.6C98.5593 88.776 98.8366 88.9227 99.1673 89.04C99.498 89.1573 99.8366 89.216 100.183 89.216C100.477 89.216 100.714 89.184 100.895 89.12C101.077 89.056 101.21 88.9707 101.295 88.864C101.381 88.752 101.423 88.6267 101.423 88.488C101.423 88.3173 101.362 88.1813 101.239 88.08C101.117 87.9733 100.957 87.8907 100.759 87.832C100.567 87.768 100.351 87.7093 100.111 87.656C99.8766 87.6027 99.6393 87.5413 99.3993 87.472C99.1646 87.3973 98.9486 87.304 98.7513 87.192C98.5593 87.0747 98.402 86.92 98.2793 86.728C98.1566 86.536 98.0953 86.2907 98.0953 85.992C98.0953 85.688 98.1753 85.4107 98.3353 85.16C98.5006 84.904 98.7486 84.7013 99.0793 84.552C99.4153 84.3973 99.8393 84.32 100.351 84.32C100.687 84.32 101.021 84.3627 101.351 84.448C101.682 84.5333 101.97 84.656 102.215 84.816L101.887 85.624C101.637 85.4747 101.378 85.3653 101.111 85.296C100.845 85.2213 100.589 85.184 100.343 85.184C100.055 85.184 99.8206 85.2187 99.6393 85.288C99.4633 85.3573 99.3326 85.448 99.2473 85.56C99.1673 85.672 99.1273 85.8 99.1273 85.944C99.1273 86.1147 99.186 86.2533 99.3033 86.36C99.426 86.4613 99.5833 86.5413 99.7753 86.6C99.9726 86.6587 100.191 86.7173 100.431 86.776C100.671 86.8293 100.909 86.8907 101.143 86.96C101.383 87.0293 101.599 87.12 101.791 87.232C101.989 87.344 102.146 87.496 102.263 87.688C102.386 87.88 102.447 88.1227 102.447 88.416C102.447 88.7147 102.365 88.992 102.199 89.248C102.039 89.4987 101.791 89.7013 101.455 89.856C101.119 90.0053 100.695 90.08 100.183 90.08ZM105.69 90V84.4H109.778V85.272H106.73V90H105.69ZM106.642 87.856V86.976H109.434V87.856H106.642ZM113.345 90.08C112.907 90.08 112.505 90.008 112.137 89.864C111.769 89.72 111.449 89.52 111.177 89.264C110.905 89.0027 110.694 88.6987 110.545 88.352C110.395 88 110.321 87.616 110.321 87.2C110.321 86.784 110.395 86.4027 110.545 86.056C110.694 85.704 110.905 85.4 111.177 85.144C111.449 84.8827 111.769 84.68 112.137 84.536C112.505 84.392 112.905 84.32 113.337 84.32C113.774 84.32 114.174 84.392 114.537 84.536C114.905 84.68 115.225 84.8827 115.497 85.144C115.769 85.4 115.979 85.704 116.129 86.056C116.278 86.4027 116.353 86.784 116.353 87.2C116.353 87.616 116.278 88 116.129 88.352C115.979 88.704 115.769 89.008 115.497 89.264C115.225 89.52 114.905 89.72 114.537 89.864C114.174 90.008 113.777 90.08 113.345 90.08ZM113.337 89.168C113.619 89.168 113.881 89.12 114.121 89.024C114.361 88.928 114.569 88.792 114.745 88.616C114.921 88.4347 115.057 88.2267 115.153 87.992C115.254 87.752 115.305 87.488 115.305 87.2C115.305 86.912 115.254 86.6507 115.153 86.416C115.057 86.176 114.921 85.968 114.745 85.792C114.569 85.6107 114.361 85.472 114.121 85.376C113.881 85.28 113.619 85.232 113.337 85.232C113.054 85.232 112.793 85.28 112.553 85.376C112.318 85.472 112.11 85.6107 111.929 85.792C111.753 85.968 111.614 86.176 111.513 86.416C111.417 86.6507 111.369 86.912 111.369 87.2C111.369 87.4827 111.417 87.744 111.513 87.984C111.614 88.224 111.753 88.4347 111.929 88.616C112.105 88.792 112.313 88.928 112.553 89.024C112.793 89.12 113.054 89.168 113.337 89.168ZM117.455 90V84.4H119.751C120.498 84.4 121.082 84.576 121.503 84.928C121.93 85.28 122.143 85.768 122.143 86.392C122.143 86.8027 122.047 87.1573 121.855 87.456C121.663 87.7493 121.388 87.976 121.031 88.136C120.679 88.2907 120.255 88.368 119.759 88.368H118.031L118.495 87.896V90H117.455ZM121.119 90L119.703 87.968H120.815L122.239 90H121.119ZM118.495 88.008L118.031 87.512H119.711C120.17 87.512 120.514 87.4133 120.743 87.216C120.978 87.0187 121.095 86.744 121.095 86.392C121.095 86.0347 120.978 85.76 120.743 85.568C120.514 85.376 120.17 85.28 119.711 85.28H118.031L118.495 84.768V88.008ZM125.923 90.08C125.485 90.08 125.083 90.0107 124.715 89.872C124.352 89.728 124.035 89.528 123.763 89.272C123.491 89.0107 123.28 88.704 123.131 88.352C122.981 88 122.907 87.616 122.907 87.2C122.907 86.784 122.981 86.4 123.131 86.048C123.28 85.696 123.491 85.392 123.763 85.136C124.04 84.8747 124.363 84.6747 124.731 84.536C125.099 84.392 125.501 84.32 125.939 84.32C126.413 84.32 126.84 84.3973 127.219 84.552C127.603 84.7067 127.925 84.9333 128.187 85.232L127.531 85.872C127.312 85.6533 127.075 85.4933 126.819 85.392C126.568 85.2853 126.291 85.232 125.987 85.232C125.693 85.232 125.421 85.28 125.171 85.376C124.92 85.472 124.704 85.608 124.523 85.784C124.341 85.96 124.2 86.168 124.099 86.408C124.003 86.648 123.955 86.912 123.955 87.2C123.955 87.4827 124.003 87.744 124.099 87.984C124.2 88.224 124.341 88.4347 124.523 88.616C124.704 88.792 124.917 88.928 125.163 89.024C125.408 89.12 125.68 89.168 125.979 89.168C126.256 89.168 126.523 89.1253 126.779 89.04C127.04 88.9493 127.288 88.8 127.523 88.592L128.115 89.368C127.821 89.6027 127.48 89.7813 127.091 89.904C126.707 90.0213 126.317 90.08 125.923 90.08ZM128.115 89.368L127.131 89.232V87.136H128.115V89.368ZM129.486 90V84.4H133.574V85.272H130.526V89.128H133.686V90H129.486ZM130.446 87.584V86.728H133.23V87.584H130.446ZM85.131 101.132C84.5223 101.132 83.9613 101.037 83.448 100.846C82.942 100.648 82.4983 100.369 82.117 100.01C81.743 99.6507 81.4497 99.229 81.237 98.745C81.0317 98.261 80.929 97.7293 80.929 97.15C80.929 96.5707 81.0317 96.039 81.237 95.555C81.4497 95.071 81.7467 94.6493 82.128 94.29C82.5093 93.9307 82.9567 93.6557 83.47 93.465C83.9833 93.267 84.548 93.168 85.164 93.168C85.846 93.168 86.4583 93.2817 87.001 93.509C87.551 93.7363 88.013 94.0663 88.387 94.499L87.243 95.555C86.9643 95.2617 86.66 95.0453 86.33 94.906C86 94.7593 85.6407 94.686 85.252 94.686C84.878 94.686 84.537 94.7447 84.229 94.862C83.921 94.9793 83.6533 95.148 83.426 95.368C83.206 95.588 83.0337 95.8483 82.909 96.149C82.7917 96.4497 82.733 96.7833 82.733 97.15C82.733 97.5093 82.7917 97.8393 82.909 98.14C83.0337 98.4407 83.206 98.7047 83.426 98.932C83.6533 99.152 83.9173 99.3207 84.218 99.438C84.526 99.5553 84.8633 99.614 85.23 99.614C85.582 99.614 85.923 99.559 86.253 99.449C86.5903 99.3317 86.9167 99.1373 87.232 98.866L88.244 100.153C87.826 100.468 87.3383 100.71 86.781 100.879C86.231 101.048 85.681 101.132 85.131 101.132ZM88.244 100.153L86.616 99.922V97.029H88.244V100.153ZM88.8873 101L92.3193 93.3H94.0793L97.5223 101H95.6523L92.8363 94.202H93.5403L90.7133 101H88.8873ZM90.6033 99.35L91.0763 97.997H95.0363L95.5203 99.35H90.6033ZM98.3212 101V93.3H99.7952L103.073 98.734H102.292L105.515 93.3H106.978L107 101H105.328L105.317 95.863H105.625L103.051 100.186H102.248L99.6192 95.863H99.9932V101H98.3212ZM108.827 101V93.3H114.646V94.73H110.598V99.57H114.789V101H108.827ZM110.466 97.788V96.402H114.173V97.788H110.466ZM118.737 101.132C118.121 101.132 117.531 101.051 116.966 100.89C116.401 100.721 115.947 100.505 115.602 100.241L116.207 98.899C116.537 99.1337 116.926 99.328 117.373 99.482C117.828 99.6287 118.286 99.702 118.748 99.702C119.1 99.702 119.382 99.669 119.595 99.603C119.815 99.5297 119.976 99.4307 120.079 99.306C120.182 99.1813 120.233 99.0383 120.233 98.877C120.233 98.6717 120.152 98.5103 119.991 98.393C119.83 98.2683 119.617 98.1693 119.353 98.096C119.089 98.0153 118.796 97.942 118.473 97.876C118.158 97.8027 117.839 97.7147 117.516 97.612C117.201 97.5093 116.911 97.3773 116.647 97.216C116.383 97.0547 116.167 96.842 115.998 96.578C115.837 96.314 115.756 95.9767 115.756 95.566C115.756 95.126 115.873 94.7263 116.108 94.367C116.35 94.0003 116.709 93.7107 117.186 93.498C117.67 93.278 118.275 93.168 119.001 93.168C119.485 93.168 119.962 93.2267 120.431 93.344C120.9 93.454 121.315 93.6227 121.674 93.85L121.124 95.203C120.765 94.9977 120.405 94.8473 120.046 94.752C119.687 94.6493 119.335 94.598 118.99 94.598C118.645 94.598 118.363 94.6383 118.143 94.719C117.923 94.7997 117.765 94.906 117.67 95.038C117.575 95.1627 117.527 95.3093 117.527 95.478C117.527 95.676 117.608 95.8373 117.769 95.962C117.93 96.0793 118.143 96.1747 118.407 96.248C118.671 96.3213 118.961 96.3947 119.276 96.468C119.599 96.5413 119.918 96.6257 120.233 96.721C120.556 96.8163 120.849 96.9447 121.113 97.106C121.377 97.2673 121.59 97.48 121.751 97.744C121.92 98.008 122.004 98.3417 122.004 98.745C122.004 99.1777 121.883 99.5737 121.641 99.933C121.399 100.292 121.036 100.582 120.552 100.802C120.075 101.022 119.47 101.132 118.737 101.132Z" fill="black"/>
<path d="M92 55L95 44H115V55H92Z" fill="black"/>
<path d="M84 79L88 67H131V79H84Z" fill="black"/>
<path d="M102.624 30.2549L135 38.7698C125.144 32.185 111.219 25.619 105.489 23.1591C98.6124 21.7967 88.4888 19.1855 84.2865 18.0502C79.9315 19.1855 75.5955 16.631 73.9719 15.2119C71.2213 12.0329 68.6236 11.8059 67.6685 12.0897C65.3764 14.5874 64.6124 19.9424 64.5169 22.3076C64.0584 24.1241 66.809 24.3891 68.2416 24.2944C76.7225 22.705 81.1348 26.2813 82.2809 28.2681L65.3764 86.4535L47.3258 22.0238H33L65.3764 122.5L95.1742 31.1064C97.9247 29.9711 101.287 30.0657 102.624 30.2549Z" fill="black"/>
</svg>
