<svg width="137" height="141" viewBox="0 0 137 141" fill="none" xmlns="http://www.w3.org/2000/svg">
<path d="M53.0939 61.769L45.0939 47.269L10.5939 30.269L1.59387 72.769L36.0939 127.269L58.5939 130.769H61.5939M10.5939 30.269L31.0939 72.269M1.59387 72.769L31.0939 72.269M113.594 96.769L122.594 109.769L112.594 125.769L80.0939 138.769L61.5939 130.769M61.5939 130.769L31.0939 72.269M61.5939 130.769L61.1988 114.769M86.5939 99.3419L75.0939 117.269L80.0939 138.769M112.594 125.769L75.0939 117.269M122.594 109.769L102.094 106.769M53.0939 61.769L78.5939 11.769L111.094 1.76901L135.094 39.269L113.594 96.769M113.594 96.769L102.094 97.2427M113.594 96.769L102.094 106.769M135.094 39.269L112.594 51.769M111.094 1.76901L82.0939 29.269M78.5939 11.769L82.0939 29.269M53.0939 61.769L59.0939 79.269M45.0939 47.269L31.0939 72.269M59.0939 79.269L82.0939 29.269M59.0939 79.269L60.5939 90.269L61.1988 114.769M82.0939 29.269L112.594 51.769M112.594 51.769L96.0939 96.769M61.1988 114.769L72.0939 103.269L86.5939 99.3419L96.0939 96.769M96.0939 96.769L102.094 97.2427M75.0939 117.269L102.094 106.769M102.094 106.769V97.2427" stroke="#E9E9DD" stroke-width="3"/>
<path d="M11.0939 78.269L32.5939 84.269" stroke="#E9E9DD" stroke-linecap="round"/>
<path d="M14.0939 84.269L35.5939 90.269" stroke="#E9E9DD" stroke-linecap="round"/>
<path d="M18.0939 91.769L39.5939 97.769" stroke="#E9E9DD" stroke-linecap="round"/>
<path d="M22.0939 99.269L43.5939 105.269" stroke="#E9E9DD" stroke-linecap="round"/>
<path d="M27.0939 106.269L48.5939 112.269" stroke="#E9E9DD" stroke-linecap="round"/>
<path d="M31.0939 114.269L52.5939 120.269" stroke="#E9E9DD" stroke-linecap="round"/>
<path d="M35.0939 121.269L56.5939 127.269" stroke="#E9E9DD" stroke-linecap="round"/>
<path d="M123.094 50.269L126.094 56.269" stroke="#E9E9DD" stroke-linecap="round"/>
<path d="M118.594 52.269L123.594 61.269" stroke="#E9E9DD" stroke-linecap="round"/>
<path d="M114.594 55.269L121.594 68.269" stroke="#E9E9DD" stroke-linecap="round"/>
<path d="M112.094 62.269L119.594 74.269" stroke="#E9E9DD" stroke-linecap="round"/>
<path d="M109.594 68.769L116.594 79.769" stroke="#E9E9DD" stroke-linecap="round"/>
<path d="M107.094 74.269L114.594 86.269" stroke="#E9E9DD" stroke-linecap="round"/>
<path d="M104.594 81.269L111.594 91.769" stroke="#E9E9DD" stroke-linecap="round"/>
<path d="M103.094 86.269L106.594 93.769" stroke="#E9E9DD" stroke-linecap="round"/>
<path d="M100.094 91.769L101.594 94.269" stroke="#E9E9DD" stroke-linecap="round"/>
<path d="M76.0939 22.769L78.0939 32.269" stroke="#E9E9DD" stroke-linecap="round"/>
<path d="M72.5939 28.769L75.0939 38.269" stroke="#E9E9DD" stroke-linecap="round"/>
<path d="M69.5939 33.769L72.0939 42.769" stroke="#E9E9DD" stroke-linecap="round"/>
<path d="M67.0939 40.269L69.5939 50.269" stroke="#E9E9DD" stroke-linecap="round"/>
<path d="M64.5939 46.269L66.5939 56.269" stroke="#E9E9DD" stroke-linecap="round"/>
<path d="M61.5939 52.769L63.5939 62.769" stroke="#E9E9DD" stroke-linecap="round"/>
<path d="M58.5939 59.769L60.0939 68.769" stroke="#E9E9DD" stroke-linecap="round"/>
</svg>
