<svg width="172" height="186" viewBox="0 0 172 186" fill="none" xmlns="http://www.w3.org/2000/svg">
<path d="M11.6188 76.0268L24.1188 83.5268" stroke="#2F382D" stroke-linecap="round"/>
<path d="M14.6188 84.5268L26.6188 90.5268" stroke="#2F382D" stroke-linecap="round"/>
<path d="M17.6188 92.0268L24.6188 95.5268" stroke="#2F382D" stroke-linecap="round"/>
<path d="M124.619 77.0268L127.119 87.5268" stroke="#2F382D" stroke-linecap="round"/>
<path d="M119.619 82.5268L122.619 92.5268" stroke="#2F382D" stroke-linecap="round"/>
<path d="M115.619 88.0268L118.119 97.5268" stroke="#2F382D" stroke-linecap="round"/>
<path d="M111.619 93.0268L114.119 104.027" stroke="#2F382D" stroke-linecap="round"/>
<path d="M107.619 98.5268L109.619 108.527" stroke="#2F382D" stroke-linecap="round"/>
<path d="M103.119 104.527L105.119 113.527" stroke="#2F382D" stroke-linecap="round"/>
<path d="M99.1188 110.027L101.119 119.527" stroke="#2F382D" stroke-linecap="round"/>
<path d="M95.1188 115.527L97.1188 124.527" stroke="#2F382D" stroke-linecap="round"/>
<path d="M90.6188 121.027L93.1188 129.027" stroke="#2F382D" stroke-linecap="round"/>
<path d="M87.1188 126.527L89.1188 134.027" stroke="#2F382D" stroke-linecap="round"/>
<path d="M84.1188 130.527L85.1188 134.027" stroke="#2F382D" stroke-linecap="round"/>
<path d="M105.119 169.527L121.619 177.527L130.119 165.027L137.119 153.527L129.119 142.527M110.119 88.0268L125.619 68.5268L147.119 65.0268L162.619 62.5268L170.119 101.027L129.119 142.527M129.119 142.527L123.119 137.027M121.619 177.527L117.119 142.527L111.119 132.527M79.6188 179.527L93.6188 184.027L104.119 176.527L105.119 169.527M100.619 142.527L105.119 147.527V169.527M93.6188 184.027L94.6188 153.527M17.1188 98.0268L7.11877 99.5268L1.61877 123.527L33.1188 165.027L54.6188 171.027M54.6188 171.027L58.1188 173.027L79.6188 179.527M54.6188 171.027L65.6188 158.027M54.6188 171.027L42.6188 155.027M33.1188 165.027L42.6188 155.027M1.61877 123.527L17.1188 125.027M7.11877 99.5268L35.1188 109.027M7.11877 99.5268L17.1188 125.027M56.1188 80.0268L44.6188 57.0268L29.6188 47.0268L16.1188 41.5268L13.1188 45.0268L4.11877 67.0268L17.1188 98.0268M17.1188 98.0268H31.6188M4.11877 67.0268L25.1188 76.5268M16.1188 41.5268L35.1188 67.0268M16.1188 41.5268L25.1188 76.5268M44.6188 57.0268L39.8688 62.0268M110.119 88.0268L115.619 36.0268L92.6188 8.52682L85.1188 2.02682L52.6188 33.0268L56.1188 80.0268M59.6188 123.527L59.1188 110.027L56.1188 80.0268M52.6188 33.0268L69.1188 40.5268M85.1188 2.02682L69.1188 40.5268M115.619 36.0268L80.6188 54.5268M110.119 88.0268L78.6188 131.527M125.619 68.5268L136.119 82.0268M162.619 62.5268L155.619 102.027M162.619 62.5268L136.119 82.0268M170.119 101.027L155.619 102.027M100.619 142.527L111.119 132.527L123.119 137.027M123.119 137.027L155.619 102.027M78.6188 135.527L89.1188 139.027L100.619 142.527M105.119 147.527L94.6188 153.527M94.6188 153.527L78.6188 135.527M94.6188 153.527L65.6188 158.027M80.6188 54.5268L78.6188 131.527V135.527M78.6188 135.527L73.9008 143.527M89.1188 139.027L136.119 82.0268M65.6188 158.027L79.6188 179.527M65.6188 158.027L73.9008 143.527M155.619 102.027L136.119 82.0268M80.6188 54.5268L69.1188 40.5268M73.9008 143.527L59.6188 123.527M42.6188 155.027L65.6188 146.572L73.9008 143.527M31.6188 98.0268H38.6188L59.6188 123.527M38.6188 98.0268L36.6188 100.527L35.1188 109.027M35.1188 109.027L17.1188 125.027M35.1188 109.027L65.6188 146.572M17.1188 125.027L42.6188 155.027M39.8688 62.0268L35.1188 67.0268L25.1188 76.5268M25.1188 76.5268L31.6188 98.0268M39.8688 62.0268L59.1188 110.027" stroke="#2F382D" stroke-width="3"/>
<path d="M76.6188 70.5268L61.6188 83.5268" stroke="#2F382D" stroke-linecap="round"/>
<path d="M76.1188 78.5268L62.1188 91.0268" stroke="#2F382D" stroke-linecap="round"/>
<path d="M62.6188 98.0268L75.6188 86.5268" stroke="#2F382D" stroke-linecap="round"/>
<path d="M75.6188 94.0268L63.6188 104.527" stroke="#2F382D" stroke-linecap="round"/>
<path d="M64.6188 111.527L75.6188 101.527" stroke="#2F382D" stroke-linecap="round"/>
<path d="M64.6188 119.027L74.6188 110.027" stroke="#2F382D" stroke-linecap="round"/>
<path d="M65.6188 125.527L74.6188 117.527" stroke="#2F382D" stroke-linecap="round"/>
<path d="M68.6188 130.527L74.6188 124.527" stroke="#2F382D" stroke-linecap="round"/>
<path d="M71.6188 135.027L74.1188 132.027" stroke="#2F382D" stroke-linecap="round"/>
<path d="M57.1188 40.0268V41.0268" stroke="#2F382D" stroke-linecap="round"/>
<path d="M63.6188 42.0268L57.6188 48.0268" stroke="#2F382D" stroke-linecap="round"/>
<path d="M67.6188 46.5268L58.1188 55.0268" stroke="#2F382D" stroke-linecap="round"/>
<path d="M72.1188 51.0268L59.1188 62.0268" stroke="#2F382D" stroke-linecap="round"/>
<path d="M76.1188 55.0268L59.6188 69.5268" stroke="#2F382D" stroke-linecap="round"/>
<path d="M77.1188 62.0268L60.6188 76.5268" stroke="#2F382D" stroke-linecap="round"/>
</svg>
