<svg width="699" height="234" viewBox="0 0 699 234" fill="none" xmlns="http://www.w3.org/2000/svg">
<path d="M349.5 97L356 78H387.5V97H349.5Z" fill="black"/>
<path d="M335 138.935L342 118H414.929V138.935H335Z" fill="black"/>
<path d="M268.646 149H65.5V190H281.209L268.646 149Z" fill="black"/>
<path d="M319.447 190L332.009 149H630.5V190H319.447Z" fill="black"/>
<path d="M268.646 149H65.5V190H281.209L268.646 149Z" stroke="black"/>
<path d="M319.447 190L332.009 149H630.5V190H319.447Z" stroke="black"/>
<path d="M358.268 182.432C356.252 182.432 354.32 182.168 352.472 181.64C350.624 181.088 349.136 180.38 348.008 179.516L349.988 175.124C351.068 175.892 352.34 176.528 353.804 177.032C355.292 177.512 356.792 177.752 358.304 177.752C359.456 177.752 360.38 177.644 361.076 177.428C361.796 177.188 362.324 176.864 362.66 176.456C362.996 176.048 363.164 175.58 363.164 175.052C363.164 174.38 362.9 173.852 362.372 173.468C361.844 173.06 361.148 172.736 360.284 172.496C359.42 172.232 358.46 171.992 357.404 171.776C356.372 171.536 355.328 171.248 354.272 170.912C353.24 170.576 352.292 170.144 351.428 169.616C350.564 169.088 349.856 168.392 349.304 167.528C348.776 166.664 348.512 165.56 348.512 164.216C348.512 162.776 348.896 161.468 349.664 160.292C350.456 159.092 351.632 158.144 353.192 157.448C354.776 156.728 356.756 156.368 359.132 156.368C360.716 156.368 362.276 156.56 363.812 156.944C365.348 157.304 366.704 157.856 367.88 158.6L366.08 163.028C364.904 162.356 363.728 161.864 362.552 161.552C361.376 161.216 360.224 161.048 359.096 161.048C357.968 161.048 357.044 161.18 356.324 161.444C355.604 161.708 355.088 162.056 354.776 162.488C354.464 162.896 354.308 163.376 354.308 163.928C354.308 164.576 354.572 165.104 355.1 165.512C355.628 165.896 356.324 166.208 357.188 166.448C358.052 166.688 359 166.928 360.032 167.168C361.088 167.408 362.132 167.684 363.164 167.996C364.22 168.308 365.18 168.728 366.044 169.256C366.908 169.784 367.604 170.48 368.132 171.344C368.684 172.208 368.96 173.3 368.96 174.62C368.96 176.036 368.564 177.332 367.772 178.508C366.98 179.684 365.792 180.632 364.208 181.352C362.648 182.072 360.668 182.432 358.268 182.432ZM395.813 182V161.552H387.749V156.8H409.709V161.552H401.645V182H395.813ZM441.551 182.432C437.975 182.432 435.179 181.436 433.163 179.444C431.147 177.452 430.139 174.608 430.139 170.912V156.8H435.971V170.696C435.971 173.096 436.463 174.824 437.447 175.88C438.431 176.936 439.811 177.464 441.587 177.464C443.363 177.464 444.743 176.936 445.727 175.88C446.711 174.824 447.203 173.096 447.203 170.696V156.8H452.963V170.912C452.963 174.608 451.955 177.452 449.939 179.444C447.923 181.436 445.127 182.432 441.551 182.432ZM476.726 182V156.8H488.174C490.91 156.8 493.322 157.328 495.41 158.384C497.498 159.416 499.13 160.868 500.306 162.74C501.482 164.612 502.07 166.832 502.07 169.4C502.07 171.944 501.482 174.164 500.306 176.06C499.13 177.932 497.498 179.396 495.41 180.452C493.322 181.484 490.91 182 488.174 182H476.726ZM482.558 177.212H487.886C489.566 177.212 491.018 176.9 492.242 176.276C493.49 175.628 494.45 174.716 495.122 173.54C495.818 172.364 496.166 170.984 496.166 169.4C496.166 167.792 495.818 166.412 495.122 165.26C494.45 164.084 493.49 163.184 492.242 162.56C491.018 161.912 489.566 161.588 487.886 161.588H482.558V177.212ZM524.468 182V156.8H530.3V182H524.468ZM566.521 182.432C564.529 182.432 562.681 182.108 560.977 181.46C559.297 180.812 557.833 179.9 556.585 178.724C555.361 177.548 554.401 176.168 553.705 174.584C553.033 173 552.697 171.272 552.697 169.4C552.697 167.528 553.033 165.8 553.705 164.216C554.401 162.632 555.373 161.252 556.621 160.076C557.869 158.9 559.333 157.988 561.013 157.34C562.693 156.692 564.517 156.368 566.485 156.368C568.477 156.368 570.301 156.692 571.957 157.34C573.637 157.988 575.089 158.9 576.313 160.076C577.561 161.252 578.533 162.632 579.229 164.216C579.925 165.776 580.273 167.504 580.273 169.4C580.273 171.272 579.925 173.012 579.229 174.62C578.533 176.204 577.561 177.584 576.313 178.76C575.089 179.912 573.637 180.812 571.957 181.46C570.301 182.108 568.489 182.432 566.521 182.432ZM566.485 177.464C567.613 177.464 568.645 177.272 569.581 176.888C570.541 176.504 571.381 175.952 572.101 175.232C572.821 174.512 573.373 173.66 573.757 172.676C574.165 171.692 574.369 170.6 574.369 169.4C574.369 168.2 574.165 167.108 573.757 166.124C573.373 165.14 572.821 164.288 572.101 163.568C571.405 162.848 570.577 162.296 569.617 161.912C568.657 161.528 567.613 161.336 566.485 161.336C565.357 161.336 564.313 161.528 563.353 161.912C562.417 162.296 561.589 162.848 560.869 163.568C560.149 164.288 559.585 165.14 559.177 166.124C558.793 167.108 558.601 168.2 558.601 169.4C558.601 170.576 558.793 171.668 559.177 172.676C559.585 173.66 560.137 174.512 560.833 175.232C561.553 175.952 562.393 176.504 563.353 176.888C564.313 177.272 565.357 177.464 566.485 177.464ZM610.936 182.432C608.92 182.432 606.988 182.168 605.14 181.64C603.292 181.088 601.804 180.38 600.676 179.516L602.656 175.124C603.736 175.892 605.008 176.528 606.472 177.032C607.96 177.512 609.46 177.752 610.972 177.752C612.124 177.752 613.048 177.644 613.744 177.428C614.464 177.188 614.992 176.864 615.328 176.456C615.664 176.048 615.832 175.58 615.832 175.052C615.832 174.38 615.568 173.852 615.04 173.468C614.512 173.06 613.816 172.736 612.952 172.496C612.088 172.232 611.128 171.992 610.072 171.776C609.04 171.536 607.996 171.248 606.94 170.912C605.908 170.576 604.96 170.144 604.096 169.616C603.232 169.088 602.524 168.392 601.972 167.528C601.444 166.664 601.18 165.56 601.18 164.216C601.18 162.776 601.564 161.468 602.332 160.292C603.124 159.092 604.3 158.144 605.86 157.448C607.444 156.728 609.424 156.368 611.8 156.368C613.384 156.368 614.944 156.56 616.48 156.944C618.016 157.304 619.372 157.856 620.548 158.6L618.748 163.028C617.572 162.356 616.396 161.864 615.22 161.552C614.044 161.216 612.892 161.048 611.764 161.048C610.636 161.048 609.712 161.18 608.992 161.444C608.272 161.708 607.756 162.056 607.444 162.488C607.132 162.896 606.976 163.376 606.976 163.928C606.976 164.576 607.24 165.104 607.768 165.512C608.296 165.896 608.992 166.208 609.856 166.448C610.72 166.688 611.668 166.928 612.7 167.168C613.756 167.408 614.8 167.684 615.832 167.996C616.888 168.308 617.848 168.728 618.712 169.256C619.576 169.784 620.272 170.48 620.8 171.344C621.352 172.208 621.628 173.3 621.628 174.62C621.628 176.036 621.232 177.332 620.44 178.508C619.648 179.684 618.46 180.632 616.876 181.352C615.316 182.072 613.336 182.432 610.936 182.432Z" fill="white"/>
<path d="M118.504 138.536C111.592 138.536 105.149 137.427 99.176 135.208C93.288 132.904 88.168 129.661 83.816 125.48C79.464 121.299 76.0507 116.392 73.576 110.76C71.1867 105.128 69.992 98.9413 69.992 92.2C69.992 85.4587 71.1867 79.272 73.576 73.64C76.0507 68.008 79.464 63.1013 83.816 58.92C88.2533 54.7387 93.416 51.5387 99.304 49.32C105.192 47.016 111.635 45.864 118.632 45.864C126.397 45.864 133.395 47.2293 139.624 49.96C145.939 52.6053 151.229 56.5307 155.496 61.736L142.184 74.024C139.112 70.5253 135.699 67.9227 131.944 66.216C128.189 64.424 124.093 63.528 119.656 63.528C115.475 63.528 111.635 64.2107 108.136 65.576C104.637 66.9413 101.608 68.904 99.048 71.464C96.488 74.024 94.4827 77.0533 93.032 80.552C91.6667 84.0507 90.984 87.9333 90.984 92.2C90.984 96.4667 91.6667 100.349 93.032 103.848C94.4827 107.347 96.488 110.376 99.048 112.936C101.608 115.496 104.637 117.459 108.136 118.824C111.635 120.189 115.475 120.872 119.656 120.872C124.093 120.872 128.189 120.019 131.944 118.312C135.699 116.52 139.112 113.832 142.184 110.248L155.496 122.536C151.229 127.741 145.939 131.709 139.624 134.44C133.395 137.171 126.355 138.536 118.504 138.536ZM158.688 137L198.624 47.4H219.104L259.168 137H237.408L204.64 57.896H212.832L179.936 137H158.688ZM178.656 117.8L184.16 102.056H230.24L235.872 117.8H178.656Z" fill="black"/>
<path d="M432.624 139V49.4H470.896C483.355 49.4 493.04 52.3013 499.952 58.104C506.864 63.8213 510.32 71.7573 510.32 81.912C510.32 88.568 508.741 94.328 505.584 99.192C502.427 103.971 497.947 107.64 492.144 110.2C486.341 112.76 479.429 114.04 471.408 114.04H444.144L453.36 104.952V139H432.624ZM489.584 139L467.184 106.488H489.328L511.984 139H489.584ZM453.36 107.256L444.144 97.528H470.256C476.656 97.528 481.435 96.1627 484.592 93.432C487.749 90.616 489.328 86.776 489.328 81.912C489.328 76.9627 487.749 73.1227 484.592 70.392C481.435 67.6613 476.656 66.296 470.256 66.296H444.144L453.36 56.44V107.256ZM533.149 139V49.4H550.301L603.165 113.912H594.845V49.4H615.325V139H598.301L545.309 74.488H553.629V139H533.149Z" fill="black"/>
<path d="M364.5 53.158L421 68.158C403.8 56.5581 379.5 44.9914 369.5 40.658C357.5 38.258 339.833 33.658 332.5 31.658C324.9 33.658 317.333 29.158 314.5 26.658C309.7 21.058 305.167 20.658 303.5 21.158C299.5 25.558 298.167 34.9914 298 39.158C297.2 42.358 302 42.8247 304.5 42.658C319.3 39.858 327 46.158 329 49.658L299.5 152.158L268 38.658H243L299.5 215.658L351.5 54.658C356.3 52.658 362.167 52.8247 364.5 53.158Z" fill="black"/>
</svg>
