<?xml version="1.0" encoding="UTF-8"?>
<svg version="1.1" xmlns="http://www.w3.org/2000/svg" width="612" height="408">
<path d="M0 0 C201.96 0 403.92 0 612 0 C612 66 612 132 612 200 C610.515 200.99 610.515 200.99 609 202 C609.49113281 202.39832031 609.98226562 202.79664063 610.48828125 203.20703125 C612.43183425 205.5121755 612.316536 206.7196719 612.1875 209.6875 C612.16042969 210.49574219 612.13335938 211.30398437 612.10546875 212.13671875 C612.05326172 213.05904297 612.05326172 213.05904297 612 214 C607.70312269 215.18729504 603.3538074 215.66200833 599 214.4375 C596.75696164 213.79570779 596.75696164 213.79570779 593.5625 214.8125 C592.386875 214.874375 591.21125 214.93625 590 215 C588.82306931 213.4912202 587.64634935 211.98227474 586.47143555 210.47192383 C583.88994828 207.88957992 580.58747597 207.51464328 577.125 206.9375 C575.52466167 206.62409553 573.92440538 206.31027191 572.32421875 205.99609375 C571.47005371 205.83737793 570.61588867 205.67866211 569.73583984 205.51513672 C564.78762779 204.58342804 559.86347507 203.54180352 554.9375 202.5 C553.98697754 202.31042725 553.03645508 202.12085449 552.05712891 201.92553711 C546.61491062 200.78652375 541.91348632 199.26743444 536.97485352 196.68945312 C534.54255851 195.84029982 533.38484619 196.09998787 531 197 C529.65724831 197.98731742 528.32267727 198.98594743 527 200 C526.34 200 525.68 200 525 200 C524.67 200.99 524.34 201.98 524 203 C520.37994729 205.74246418 516.08521799 205.29523706 511.75 205.25 C511.02425781 205.25773438 510.29851562 205.26546875 509.55078125 205.2734375 C505.09144962 205.2575397 501.20632498 204.66227515 496.91552734 203.4765625 C493.94420738 202.73733021 490.98721734 202.56066487 487.9375 202.375 C486.21853516 202.26285156 486.21853516 202.26285156 484.46484375 202.1484375 C480.97827737 201.95487707 480.97827737 201.95487707 477.40234375 202.12109375 C473.79100003 201.99256142 471.83079389 201.28099579 468.625 199.6875 C462.77802875 197.06338522 457.17701037 195.93581906 450.87548828 195.0769043 C446.52732972 194.44565446 443.70250015 193.27700605 440 191 C433.29640422 190.38957323 426.69771116 192.57712128 421 196 C419.1659625 197.57095835 417.45184451 199.16379385 415.80078125 200.92578125 C414 202 414 202 411.36328125 201.85546875 C407.12047306 200.77628757 403.01079023 199.43032223 398.875 198 C397.28952103 197.45699266 395.70359793 196.91528001 394.1171875 196.375 C393.42222168 196.13523438 392.72725586 195.89546875 392.01123047 195.6484375 C382.42643865 192.55822057 373.23115598 194.01652308 363.625 196.375 C362.66722656 196.59671875 361.70945312 196.8184375 360.72265625 197.046875 C354.20153425 198.54647521 354.20153425 198.54647521 348 201 C347.67 201.99 347.34 202.98 347 204 C339.33564304 210.06018922 331.02221669 209.18247323 321.6875 209.1875 C320.50220703 209.19974609 319.31691406 209.21199219 318.09570312 209.22460938 C311.41226752 209.2357299 305.44845218 208.71871877 299 207 C291.55240917 205.71400459 285.40972106 205.90158173 278.375 208.9375 C267.07940991 213.65547513 256.65165456 214.04107351 245.4375 209.4375 C238.85249701 206.50372844 232.5016029 203.19418532 226.1796875 199.734375 C225.13039062 199.16203125 224.08109375 198.5896875 223 198 C222.27425781 197.59136719 221.54851562 197.18273437 220.80078125 196.76171875 C217.52253519 195.375042 214.31276932 196.08532387 211 197 C207.87354081 198.46228807 204.95163739 200.21553029 202 202 C196.3953998 205.3055487 192.56468659 206.65646866 186 206 C185.36191406 205.6803125 184.72382813 205.360625 184.06640625 205.03125 C181.74296276 203.87172433 179.74773758 203.52012328 177.1875 203.125 C173.7673175 202.50314864 171.23681338 201.75397059 168.3125 199.875 C162.57199095 196.62565526 157.1861916 198.00868595 151 199.5 C146.18506845 200.66074243 141.94595846 201.04848979 137 201 C136.34 201.33 135.68 201.66 135 202 C132.98580836 201.75690791 130.97211868 201.50904326 128.9609375 201.2421875 C125.98819571 200.99903448 123.08188962 201.04324405 120.1027832 201.13110352 C111.23848247 201.36884338 105.37488106 199.91658738 98 195 C91.75086 194.01389717 86.71718994 195.2120793 81.02734375 197.7109375 C70.6497844 202.12976922 60.40814576 206.13565252 49 205 C47.97003906 204.97679687 46.94007812 204.95359375 45.87890625 204.9296875 C39.00404799 204.67724472 36.20487366 203.65116369 31 199 C24.72622864 196.4845728 17.75712854 194.96970515 11 196 C10.40058594 196.33644531 9.80117187 196.67289063 9.18359375 197.01953125 C7 198 7 198 0 198 C0 132.66 0 67.32 0 0 Z " fill="#666666" transform="translate(0,0)"/>
<path d="M0 0 C1.67542976 0.28604898 3.34385343 0.61781233 5 1 C5.495 3.97 5.495 3.97 6 7 C9.73437848 7.87867729 13.16774573 8.08912219 17 8 C17 8.66 17 9.32 17 10 C18.11375 9.95875 19.2275 9.9175 20.375 9.875 C24 10 24 10 26 12 C29.06134002 12.2055706 29.06134002 12.2055706 32.5 12.0625 C38.80421053 11.90210526 38.80421053 11.90210526 41 13 C41 12.34 41 11.68 41 11 C41.6290625 10.93941406 42.258125 10.87882813 42.90625 10.81640625 C44.68789385 10.64199834 46.46912944 10.46338449 48.25 10.28125 C49.95753722 10.10661551 51.66579047 9.93867719 53.375 9.78125 C57.64019977 9.44952543 57.64019977 9.44952543 61 7 C62.98828125 6.515625 62.98828125 6.515625 65.3125 6.25 C66.07175781 6.15203125 66.83101562 6.0540625 67.61328125 5.953125 C70 6 70 6 72.3671875 6.9765625 C75.65081466 8.2529873 78.30210084 8.19591715 81.8125 8.125 C82.97394531 8.10695312 84.13539063 8.08890625 85.33203125 8.0703125 C86.21246094 8.04710937 87.09289062 8.02390625 88 8 C88 8.66 88 9.32 88 10 C92.68917624 10.30668406 92.68917624 10.30668406 97.0625 8.9375 C99 8 99 8 101.9375 8.5625 C105.02221292 9.34555283 105.02221292 9.34555283 107.3125 7.5 C110.83374938 5.53465151 112.95846667 6.12892513 116.81640625 6.87109375 C119.45623641 7.02693346 120.7207751 6.26033411 123 5 C126.1783037 5.4101037 129.05279064 6.7719961 132 8 C132 8.66 132 9.32 132 10 C133.98 10.99 133.98 10.99 136 12 C136 12.66 136 13.32 136 14 C136.99 14 137.98 14 139 14 C139 14.66 139 15.32 139 16 C140.32 16 141.64 16 143 16 C143 16.66 143 17.32 143 18 C144.36125 18.2165625 144.36125 18.2165625 145.75 18.4375 C148.21476956 18.86409473 150.58847107 19.35074221 153 20 C153.8353125 18.8553125 153.8353125 18.8553125 154.6875 17.6875 C158.91819212 12.77074969 162.60717605 11.62674745 169 11 C169.33 11.99 169.66 12.98 170 14 C170.66 14 171.32 14 172 14 C172 14.66 172 15.32 172 16 C172.99 16 173.98 16 175 16 C175.33 15.01 175.66 14.02 176 13 C179.63 12.67 183.26 12.34 187 12 C188.485 8.535 188.485 8.535 190 5 C192.97 5.33 195.94 5.66 199 6 C199 7.32 199 8.64 199 10 C199.66 10 200.32 10 201 10 C201.33 11.32 201.66 12.64 202 14 C202.66 14 203.32 14 204 14 C204 14.99 204 15.98 204 17 C205.65 17.33 207.3 17.66 209 18 C209 18.99 209 19.98 209 21 C209.99 21 210.98 21 212 21 C212.33 19.68 212.66 18.36 213 17 C218.82256538 15.16852465 224.42022417 14.3790494 230.47851562 13.7890625 C234.6869014 13.43362864 234.6869014 13.43362864 238 11 C240 10.33333333 242 9.66666667 244 9 C244.66 8.34 245.32 7.68 246 7 C248.28252362 6.72255039 250.57841497 6.54970322 252.875 6.4375 C258.51135685 6.18072642 258.51135685 6.18072642 264 5 C264 4.34 264 3.68 264 3 C265.98 3 267.96 3 270 3 C270.33 2.34 270.66 1.68 271 1 C272.32 1 273.64 1 275 1 C275 1.66 275 2.32 275 3 C276.65 3 278.3 3 280 3 C280.33 3.66 280.66 4.32 281 5 C283.64056545 5.65827776 283.64056545 5.65827776 286.75 6.0625 C292.92243748 6.9822844 292.92243748 6.9822844 295.66796875 7.609375 C299.64048151 8.27478752 303.39459293 6.93591816 306.8359375 4.9296875 C309.68849581 3.70422021 311.97180826 3.84175366 315.0625 3.9375 C318.47578827 4.03454033 320.74445729 4.0851809 324 3 C325.39439664 2.93334624 326.79169875 2.91461801 328.1875 2.9375 C330.0746875 2.9684375 330.0746875 2.9684375 332 3 C332 3.66 332 4.32 332 5 C332.66 5 333.32 5 334 5 C334.33 4.01 334.66 3.02 335 2 C335.60328125 2.144375 336.2065625 2.28875 336.828125 2.4375 C337.62734375 2.623125 338.4265625 2.80875 339.25 3 C340.03890625 3.185625 340.8278125 3.37125 341.640625 3.5625 C344.25556002 4.12154828 344.25556002 4.12154828 348 4 C349.62228516 4.01740234 349.62228516 4.01740234 351.27734375 4.03515625 C352.48519531 4.04417969 353.69304687 4.05320313 354.9375 4.0625 C356.14277344 4.07410156 357.34804688 4.08570313 358.58984375 4.09765625 C361.91653908 4.12580913 361.91653908 4.12580913 364.72265625 3.3125 C367 3 367 3 368.84375 4.21484375 C369.66359375 5.06755859 369.66359375 5.06755859 370.5 5.9375 C373.22969799 8.5822 373.22969799 8.5822 376.9375 9.375 C377.618125 9.25125 378.29875 9.1275 379 9 C379 9.66 379 10.32 379 11 C380.134375 10.98839844 381.26875 10.97679687 382.4375 10.96484375 C383.95833167 10.9554559 385.47916514 10.94635678 387 10.9375 C388.11568359 10.92493164 388.11568359 10.92493164 389.25390625 10.91210938 C394.26711996 10.89031279 399.03495986 11.3072037 404 12 C409.93983978 12.60998355 413.11561719 11.52129924 418 8 C418.99 8.33 419.98 8.66 421 9 C426.54915088 9.42685776 429.98393775 8.2800283 435 6 C437 5.66666667 439 5.33333333 441 5 C441.33 4.34 441.66 3.68 442 3 C442.66 3 443.32 3 444 3 C444 3.99 444 4.98 444 6 C445.2375 5.979375 446.475 5.95875 447.75 5.9375 C450.68300574 5.9375 453.18975689 6.09670757 456 7 C456.7425 7.185625 457.485 7.37125 458.25 7.5625 C459.11625 7.7790625 459.11625 7.7790625 460 8 C460 8.99 460 9.98 460 11 C461.485 10.505 461.485 10.505 463 10 C464.6760772 10.642641 466.34128138 11.31379686 468 12 C470.26117071 12.42943688 472.53358565 12.80272928 474.8125 13.125 C475.97394531 13.29257813 477.13539063 13.46015625 478.33203125 13.6328125 C479.21246094 13.75398437 480.09289062 13.87515625 481 14 C481 14.99 481 15.98 481 17 C483.31 17 485.62 17 488 17 C488.66 18.32 489.32 19.64 490 21 C492.31 21 494.62 21 497 21 C497 20.34 497 19.68 497 19 C498.98 19 500.96 19 503 19 C503 19.66 503 20.32 503 21 C502.34 21.33 501.68 21.66 501 22 C501.49113281 22.39832031 501.98226562 22.79664063 502.48828125 23.20703125 C504.43183425 25.5121755 504.316536 26.7196719 504.1875 29.6875 C504.16042969 30.49574219 504.13335938 31.30398437 504.10546875 32.13671875 C504.05326172 33.05904297 504.05326172 33.05904297 504 34 C499.70312269 35.18729504 495.3538074 35.66200833 491 34.4375 C488.75696164 33.79570779 488.75696164 33.79570779 485.5625 34.8125 C484.386875 34.874375 483.21125 34.93625 482 35 C480.82306931 33.4912202 479.64634935 31.98227474 478.47143555 30.47192383 C475.88994828 27.88957992 472.58747597 27.51464328 469.125 26.9375 C467.52466167 26.62409553 465.92440538 26.31027191 464.32421875 25.99609375 C463.47005371 25.83737793 462.61588867 25.67866211 461.73583984 25.51513672 C456.78762779 24.58342804 451.86347507 23.54180352 446.9375 22.5 C445.98697754 22.31042725 445.03645508 22.12085449 444.05712891 21.92553711 C438.61491062 20.78652375 433.91348632 19.26743444 428.97485352 16.68945312 C426.54255851 15.84029982 425.38484619 16.09998787 423 17 C421.65724831 17.98731742 420.32267727 18.98594743 419 20 C418.34 20 417.68 20 417 20 C416.67 20.99 416.34 21.98 416 23 C412.37994729 25.74246418 408.08521799 25.29523706 403.75 25.25 C402.66138672 25.26160156 402.66138672 25.26160156 401.55078125 25.2734375 C397.09144962 25.2575397 393.20632498 24.66227515 388.91552734 23.4765625 C385.94420738 22.73733021 382.98721734 22.56066487 379.9375 22.375 C378.79152344 22.30023438 377.64554687 22.22546875 376.46484375 22.1484375 C372.97827737 21.95487707 372.97827737 21.95487707 369.40234375 22.12109375 C365.79100003 21.99256142 363.83079389 21.28099579 360.625 19.6875 C354.77802875 17.06338522 349.17701037 15.93581906 342.87548828 15.0769043 C338.52732972 14.44565446 335.70250015 13.27700605 332 11 C325.29640422 10.38957323 318.69771116 12.57712128 313 16 C311.1659625 17.57095835 309.45184451 19.16379385 307.80078125 20.92578125 C306 22 306 22 303.36328125 21.85546875 C299.12047306 20.77628757 295.01079023 19.43032223 290.875 18 C289.28952103 17.45699266 287.70359793 16.91528001 286.1171875 16.375 C285.42222168 16.13523438 284.72725586 15.89546875 284.01123047 15.6484375 C274.42643865 12.55822057 265.23115598 14.01652308 255.625 16.375 C254.18833984 16.70757812 254.18833984 16.70757812 252.72265625 17.046875 C246.20153425 18.54647521 246.20153425 18.54647521 240 21 C239.67 21.99 239.34 22.98 239 24 C231.33564304 30.06018922 223.02221669 29.18247323 213.6875 29.1875 C211.90956055 29.20586914 211.90956055 29.20586914 210.09570312 29.22460938 C203.41226752 29.2357299 197.44845218 28.71871877 191 27 C183.55240917 25.71400459 177.40972106 25.90158173 170.375 28.9375 C159.07940991 33.65547513 148.65165456 34.04107351 137.4375 29.4375 C130.85249701 26.50372844 124.5016029 23.19418532 118.1796875 19.734375 C117.13039062 19.16203125 116.08109375 18.5896875 115 18 C114.27425781 17.59136719 113.54851562 17.18273437 112.80078125 16.76171875 C109.52253519 15.375042 106.31276932 16.08532387 103 17 C99.87354081 18.46228807 96.95163739 20.21553029 94 22 C88.3953998 25.3055487 84.56468659 26.65646866 78 26 C77.04287109 25.52046875 77.04287109 25.52046875 76.06640625 25.03125 C73.74296276 23.87172433 71.74773758 23.52012328 69.1875 23.125 C65.7673175 22.50314864 63.23681338 21.75397059 60.3125 19.875 C54.57199095 16.62565526 49.1861916 18.00868595 43 19.5 C38.18506845 20.66074243 33.94595846 21.04848979 29 21 C28.34 21.33 27.68 21.66 27 22 C24.98580836 21.75690791 22.97211868 21.50904326 20.9609375 21.2421875 C17.98819571 20.99903448 15.08188962 21.04324405 12.1027832 21.13110352 C3.23848247 21.36884338 -2.62511894 19.91658738 -10 15 C-16.24914 14.01389717 -21.28281006 15.2120793 -26.97265625 17.7109375 C-37.3502156 22.12976922 -47.59185424 26.13565252 -59 25 C-60.02996094 24.97679687 -61.05992188 24.95359375 -62.12109375 24.9296875 C-68.99595201 24.67724472 -71.79512634 23.65116369 -77 19 C-83.27377136 16.4845728 -90.24287146 14.96970515 -97 16 C-97.59941406 16.33644531 -98.19882813 16.67289063 -98.81640625 17.01953125 C-101 18 -101 18 -108 18 C-108 13.38 -108 8.76 -108 4 C-97.375 3.75 -97.375 3.75 -94 6 C-94 5.34 -94 4.68 -94 4 C-93.01 4 -92.02 4 -91 4 C-90.01 5.485 -90.01 5.485 -89 7 C-86.11992665 7.25044116 -83.76996467 7.24061396 -81 6.375 C-77.40239689 5.70044942 -74.18420797 7.40789601 -71 9 C-68.98525281 8.97607025 -68.98525281 8.97607025 -66.75 8.6875 C-66.00234375 8.60886719 -65.2546875 8.53023437 -64.484375 8.44921875 C-61.53129577 7.91525002 -58.84248584 6.96361306 -56 6 C-53.28280564 5.24277731 -50.54962984 4.55612908 -47.8125 3.875 C-47.10158203 3.69324219 -46.39066406 3.51148438 -45.65820312 3.32421875 C-42.69535741 2.58281051 -40.06668869 2 -37 2 C-37 2.66 -37 3.32 -37 4 C-35.35 4.33 -33.7 4.66 -32 5 C-32 5.99 -32 6.98 -32 8 C-31.15824219 7.835 -30.31648438 7.67 -29.44921875 7.5 C-25.83907214 6.97667184 -22.45731361 6.93749516 -18.8125 7 C-13.81434525 7.11039553 -13.81434525 7.11039553 -9 6 C-9 5.34 -9 4.68 -9 4 C-8.43410156 3.79503906 -7.86820312 3.59007812 -7.28515625 3.37890625 C-6.18494141 2.97478516 -6.18494141 2.97478516 -5.0625 2.5625 C-3.96615234 2.16224609 -3.96615234 2.16224609 -2.84765625 1.75390625 C-1.01694322 1.14613052 -1.01694322 1.14613052 0 0 Z " fill="#F7F7F7" transform="translate(108,180)"/>
<path d="M0 0 C1.65 0 3.3 0 5 0 C5 0.99 5 1.98 5 3 C5.99 3.33 6.98 3.66 8 4 C6.35 4 4.7 4 3 4 C2.67 5.32 2.34 6.64 2 8 C1.01 8 0.02 8 -1 8 C-1.33 7.01 -1.66 6.02 -2 5 C-4.01508358 4.26676204 -4.01508358 4.26676204 -6 4 C-5.67 3.34 -5.34 2.68 -5 2 C-3.68 2 -2.36 2 -1 2 C-0.67 1.34 -0.34 0.68 0 0 Z " fill="#828282" transform="translate(318,193)"/>
<path d="M0 0 C1.98 0 3.96 0 6 0 C6 0.66 6 1.32 6 2 C5.01 2.495 5.01 2.495 4 3 C4.99 4.485 4.99 4.485 6 6 C4.35 6 2.7 6 1 6 C1 5.34 1 4.68 1 4 C-1.97 3.505 -1.97 3.505 -5 3 C-5 2.67 -5 2.34 -5 2 C-3.35 2 -1.7 2 0 2 C0 1.34 0 0.68 0 0 Z " fill="#C7C7C7" transform="translate(605,199)"/>
<path d="M0 0 C0.66 0 1.32 0 2 0 C2.33 0.66 2.66 1.32 3 2 C5.57951874 2.69093896 5.57951874 2.69093896 8.5625 3.125 C9.57441406 3.29257813 10.58632812 3.46015625 11.62890625 3.6328125 C12.80259766 3.81457031 12.80259766 3.81457031 14 4 C14 4.33 14 4.66 14 5 C9.38 5.33 4.76 5.66 0 6 C0 4.02 0 2.04 0 0 Z " fill="#717171" transform="translate(76,182)"/>
<path d="M0 0 C2.29109597 -0.08075665 4.58299267 -0.13907731 6.875 -0.1875 C8.78925781 -0.23970703 8.78925781 -0.23970703 10.7421875 -0.29296875 C11.81726563 -0.19628906 12.89234375 -0.09960938 14 0 C14.66 0.99 15.32 1.98 16 3 C10.72 2.67 5.44 2.34 0 2 C0 1.34 0 0.68 0 0 Z " fill="#DBDBDB" transform="translate(113,198)"/>
<path d="M0 0 C0.99 0.33 1.98 0.66 3 1 C3 1.66 3 2.32 3 3 C3.66 3.33 4.32 3.66 5 4 C0.71 4 -3.58 4 -8 4 C-8 3.67 -8 3.34 -8 3 C-5.69 3 -3.38 3 -1 3 C-0.67 2.01 -0.34 1.02 0 0 Z " fill="#D7D7D7" transform="translate(513,201)"/>
<path d="M0 0 C0.99 0 1.98 0 3 0 C3.33 0.66 3.66 1.32 4 2 C6.64 2 9.28 2 12 2 C8.09971775 4.60018816 4.52565431 4.15085514 0 4 C-0.33 3.34 -0.66 2.68 -1 2 C-0.67 1.34 -0.34 0.68 0 0 Z " fill="#7A7A7A" transform="translate(134,189)"/>
<path d="M0 0 C-5.625 4 -5.625 4 -9 4 C-9 3.01 -9 2.02 -9 1 C-2.25 -1.125 -2.25 -1.125 0 0 Z " fill="#EEEEEE" transform="translate(203,201)"/>
<path d="M0 0 C0 0.66 0 1.32 0 2 C-4.455 2.495 -4.455 2.495 -9 3 C-6.27596221 -1.08605669 -4.4643819 -1.38549783 0 0 Z " fill="#E2E2E2" transform="translate(384,190)"/>
<path d="M0 0 C0.66 0.33 1.32 0.66 2 1 C2 2.32 2 3.64 2 5 C-2 5 -2 5 -5 3 C-3.35 3 -1.7 3 0 3 C0 2.01 0 1.02 0 0 Z " fill="#757575" transform="translate(212,184)"/>
<path d="M0 0 C1.9375 0.375 1.9375 0.375 4 1 C4.33 1.66 4.66 2.32 5 3 C0.545 3.495 0.545 3.495 -4 4 C-4 3.01 -4 2.02 -4 1 C-2.68 1.33 -1.36 1.66 0 2 C0 1.34 0 0.68 0 0 Z " fill="#E7E7E7" transform="translate(139,197)"/>
<path d="M0 0 C0.99 0.495 0.99 0.495 2 1 C2 1.99 2 2.98 2 4 C4.64 4.33 7.28 4.66 10 5 C8.3125 6.125 8.3125 6.125 6 7 C3.3125 6.4375 3.3125 6.4375 1 5 C0.1875 2.375 0.1875 2.375 0 0 Z " fill="#9C9C9C" transform="translate(113,182)"/>
<path d="M0 0 C1.32 0.66 2.64 1.32 4 2 C3.01 2.495 3.01 2.495 2 3 C2 3.66 2 4.32 2 5 C0.68 5.33 -0.64 5.66 -2 6 C-1.34 4.02 -0.68 2.04 0 0 Z " fill="#D5D5D5" transform="translate(298,185)"/>
<path d="M0 0 C1.2065625 0.0309375 1.2065625 0.0309375 2.4375 0.0625 C2.4375 1.3825 2.4375 2.7025 2.4375 4.0625 C1.4475 4.0625 0.4575 4.0625 -0.5625 4.0625 C-0.5625 3.4025 -0.5625 2.7425 -0.5625 2.0625 C-1.5525 1.7325 -2.5425 1.4025 -3.5625 1.0625 C-2.5625 0.0625 -2.5625 0.0625 0 0 Z " fill="#8D8D8D" transform="translate(487.5625,186.9375)"/>
</svg>
